<?xml version="1.0" standalone="no"?>
<!DOCTYPE svg PUBLIC "-//W3C//DTD SVG 20010904//EN"
 "http://www.w3.org/TR/2001/REC-SVG-20010904/DTD/svg10.dtd">
<svg version="1.0" xmlns="http://www.w3.org/2000/svg"
 width="626.000000pt" height="626.000000pt" viewBox="0 0 626.000000 626.000000"
 preserveAspectRatio="xMidYMid meet">

<g transform="translate(0.000000,626.000000) scale(0.100000,-0.100000)"
fill="#000000" stroke="none">
<path d="M3262 4869 c-183 -24 -396 -110 -604 -245 l-99 -64 -258 0 c-481 0
-657 -35 -865 -174 -147 -98 -286 -266 -381 -461 -90 -185 -127 -392 -107
-597 55 -532 434 -977 835 -978 l68 0 -6 -257 c-4 -142 -8 -264 -11 -271 -2
-8 17 -22 50 -37 436 -193 1833 -207 2339 -23 l58 21 -7 201 c-3 111 -10 239
-14 286 -4 47 -6 88 -4 91 2 3 40 1 86 -4 152 -16 322 18 469 94 381 197 589
719 473 1184 -8 33 -36 102 -61 154 -38 80 -59 108 -137 186 -75 76 -106 100
-176 134 -156 76 -285 95 -519 78 -32 -2 -35 2 -92 92 -150 238 -309 403 -470
490 -173 93 -362 127 -567 100z m275 -245 c206 -42 353 -163 532 -435 42 -63
87 -138 100 -166 l23 -51 -48 -63 c-27 -35 -62 -92 -77 -126 -26 -58 -53 -170
-44 -179 3 -3 16 14 30 38 93 155 257 280 407 308 71 13 122 12 202 -4 269
-58 434 -303 415 -621 -16 -264 -143 -511 -328 -634 -187 -125 -449 -127 -690
-6 l-70 36 50 48 c27 26 64 76 81 111 28 56 80 229 80 267 0 8 -27 -20 -60
-61 -95 -120 -211 -202 -339 -240 -61 -18 -176 -21 -216 -6 l-27 10 42 47
c110 126 176 392 151 615 -17 149 -27 159 -34 32 -16 -289 -125 -483 -330
-584 -76 -37 -189 -69 -246 -70 l-24 0 20 23 c66 71 96 258 62 378 l-12 44 -9
-52 c-27 -175 -134 -313 -284 -364 -64 -22 -84 -24 -289 -24 -199 0 -227 2
-290 22 -173 54 -350 238 -440 453 l-35 85 6 -70 c17 -213 82 -377 201 -505
l66 -71 -38 -55 c-72 -104 -154 -155 -261 -162 -90 -6 -159 14 -244 69 -319
206 -478 724 -333 1088 82 207 247 403 403 479 47 23 112 49 144 57 91 23 257
37 400 33 l130 -3 -75 -51 c-81 -56 -161 -99 -224 -120 l-40 -13 55 5 c226 21
488 116 706 254 232 148 338 197 494 231 107 22 209 23 307 3z m-267 -1860
c165 -18 348 -55 455 -90 99 -32 210 -89 235 -121 37 -47 70 -268 70 -469 l0
-104 -47 24 c-323 162 -1019 224 -1527 136 -134 -24 -236 -51 -312 -85 -31
-14 -59 -23 -62 -21 -6 7 17 408 29 496 6 41 15 80 20 86 38 46 300 124 497
148 162 19 476 20 642 0z"/>
</g>
</svg>
